<svg width="64" height="44" viewBox="0 0 64 44" fill="none" xmlns="http://www.w3.org/2000/svg">
    <g id="Flag_USA_Custom">
    <g clip-path="url(#clip0_6640_170320)">
    <path id="Vector" d="M0 0H64V44H0V0Z" fill="white"/>
    <path id="Vector_2" d="M24 18H64V21H24V18Z" fill="#EC1C24"/>
    <path id="Vector_3" d="M0 24H64V27H0V24Z" fill="#EC1C24"/>
    <path id="Vector_4" d="M0 30H64V33H0V30Z" fill="#EC1C24"/>
    <path id="Vector_5" d="M0 36H64V39H0V36Z" fill="#EC1C24"/>
    <path id="Vector_6" d="M0 42H64V45H0V42Z" fill="#EC1C24"/>
    <path id="Vector_7" d="M24 12H64V15H24V12Z" fill="#EC1C24"/>
    <path id="Vector_8" d="M24 6H64V9H24V6Z" fill="#EC1C24"/>
    <path id="Vector_9" d="M24 0H64V3H24V0Z" fill="#EC1C24"/>
    <rect id="Rectangle 308" y="-1" width="24" height="22" fill="#428BC1"/>
    <g id="Vector_10">
    <path fill-rule="evenodd" clip-rule="evenodd" d="M1.82828 2.05458C1.79933 1.98181 1.70067 1.98181 1.67172 2.05458L1.5067 2.46946L1.07808 2.50538C1.00296 2.5117 0.972478 2.60974 1.02974 2.66102L1.35619 2.95344L1.25645 3.39057C1.23896 3.46721 1.31877 3.52783 1.38315 3.48673L1.75 3.25247L2.11694 3.48673C2.18123 3.52783 2.26104 3.46721 2.24355 3.39057L2.14381 2.95344L2.47026 2.66102C2.52752 2.60974 2.49704 2.5117 2.42192 2.50547L1.99339 2.46946L1.82828 2.05458Z" fill="white"/>
    <path fill-rule="evenodd" clip-rule="evenodd" d="M1.82828 6.05458C1.79933 5.98181 1.70067 5.98181 1.67172 6.05458L1.5067 6.46946L1.07808 6.50538C1.00296 6.5117 0.972478 6.60974 1.02974 6.66102L1.35619 6.95344L1.25645 7.39057C1.23896 7.46721 1.31877 7.52783 1.38315 7.48673L1.75 7.25247L2.11694 7.48673C2.18123 7.52783 2.26104 7.46721 2.24355 7.39057L2.14381 6.95344L2.47026 6.66102C2.52752 6.60974 2.49704 6.5117 2.42192 6.50547L1.99339 6.46946L1.82828 6.05458Z" fill="white"/>
    <path fill-rule="evenodd" clip-rule="evenodd" d="M1.82828 10.0546C1.79933 9.98181 1.70067 9.98181 1.67172 10.0546L1.5067 10.4695L1.07808 10.5054C1.00296 10.5117 0.972478 10.6097 1.02974 10.661L1.35619 10.9534L1.25645 11.3906C1.23896 11.4672 1.31877 11.5278 1.38315 11.4867L1.75 11.2525L2.11694 11.4867C2.18123 11.5278 2.26104 11.4672 2.24355 11.3906L2.14381 10.9534L2.47026 10.661C2.52752 10.6097 2.49704 10.5117 2.42192 10.5055L1.99339 10.4695L1.82828 10.0546Z" fill="white"/>
    <path fill-rule="evenodd" clip-rule="evenodd" d="M1.82828 14.0546C1.79933 13.9818 1.70067 13.9818 1.67172 14.0546L1.5067 14.4695L1.07808 14.5054C1.00296 14.5117 0.972478 14.6097 1.02974 14.661L1.35619 14.9534L1.25645 15.3906C1.23896 15.4672 1.31877 15.5278 1.38315 15.4867L1.75 15.2525L2.11694 15.4867C2.18123 15.5278 2.26104 15.4672 2.24355 15.3906L2.14381 14.9534L2.47026 14.661C2.52752 14.6097 2.49704 14.5117 2.42192 14.5055L1.99339 14.4695L1.82828 14.0546Z" fill="white"/>
    <path fill-rule="evenodd" clip-rule="evenodd" d="M1.82828 18.0546C1.79933 17.9818 1.70067 17.9818 1.67172 18.0546L1.5067 18.4695L1.07808 18.5054C1.00296 18.5117 0.972478 18.6097 1.02974 18.661L1.35619 18.9534L1.25645 19.3906C1.23896 19.4672 1.31877 19.5278 1.38315 19.4867L1.75 19.2525L2.11694 19.4867C2.18123 19.5278 2.26104 19.4672 2.24355 19.3906L2.14381 18.9534L2.47026 18.661C2.52752 18.6097 2.49704 18.5117 2.42192 18.5055L1.99339 18.4695L1.82828 18.0546Z" fill="white"/>
    <path fill-rule="evenodd" clip-rule="evenodd" d="M3.82828 4.05458C3.79933 3.98181 3.70067 3.98181 3.67172 4.05458L3.5067 4.46946L3.07808 4.50538C3.00296 4.5117 2.97248 4.60974 3.02974 4.66102L3.35619 4.95344L3.25645 5.39057C3.23896 5.46721 3.31877 5.52783 3.38315 5.48673L3.75 5.25247L4.11694 5.48673C4.18123 5.52783 4.26104 5.46721 4.24355 5.39057L4.14381 4.95344L4.47026 4.66102C4.52752 4.60974 4.49704 4.5117 4.42192 4.50547L3.99339 4.46946L3.82828 4.05458Z" fill="white"/>
    <path fill-rule="evenodd" clip-rule="evenodd" d="M3.82828 8.05458C3.79933 7.98181 3.70067 7.98181 3.67172 8.05458L3.5067 8.46946L3.07808 8.50538C3.00296 8.5117 2.97248 8.60974 3.02974 8.66102L3.35619 8.95344L3.25645 9.39057C3.23896 9.46721 3.31877 9.52783 3.38315 9.48673L3.75 9.25247L4.11694 9.48673C4.18123 9.52783 4.26104 9.46721 4.24355 9.39057L4.14381 8.95344L4.47026 8.66102C4.52752 8.60974 4.49704 8.5117 4.42192 8.50547L3.99339 8.46946L3.82828 8.05458Z" fill="white"/>
    <path fill-rule="evenodd" clip-rule="evenodd" d="M3.82828 12.0546C3.79933 11.9818 3.70067 11.9818 3.67172 12.0546L3.5067 12.4695L3.07808 12.5054C3.00296 12.5117 2.97248 12.6097 3.02974 12.661L3.35619 12.9534L3.25645 13.3906C3.23896 13.4672 3.31877 13.5278 3.38315 13.4867L3.75 13.2525L4.11694 13.4867C4.18123 13.5278 4.26104 13.4672 4.24355 13.3906L4.14381 12.9534L4.47026 12.661C4.52752 12.6097 4.49704 12.5117 4.42192 12.5055L3.99339 12.4695L3.82828 12.0546Z" fill="white"/>
    <path fill-rule="evenodd" clip-rule="evenodd" d="M3.82828 16.0546C3.79933 15.9818 3.70067 15.9818 3.67172 16.0546L3.5067 16.4695L3.07808 16.5054C3.00296 16.5117 2.97248 16.6097 3.02974 16.661L3.35619 16.9534L3.25645 17.3906C3.23896 17.4672 3.31877 17.5278 3.38315 17.4867L3.75 17.2525L4.11694 17.4867C4.18123 17.5278 4.26104 17.4672 4.24355 17.3906L4.14381 16.9534L4.47026 16.661C4.52752 16.6097 4.49704 16.5117 4.42192 16.5055L3.99339 16.4695L3.82828 16.0546Z" fill="white"/>
    <path fill-rule="evenodd" clip-rule="evenodd" d="M5.82828 2.05458C5.79933 1.98181 5.70067 1.98181 5.67172 2.05458L5.5067 2.46946L5.07808 2.50538C5.00296 2.5117 4.97248 2.60974 5.02974 2.66102L5.35619 2.95344L5.25645 3.39057C5.23896 3.46721 5.31876 3.52783 5.38315 3.48673L5.75 3.25247L6.11694 3.48673C6.18124 3.52783 6.26104 3.46721 6.24355 3.39057L6.14381 2.95344L6.47026 2.66102C6.52752 2.60974 6.49704 2.5117 6.42192 2.50547L5.99339 2.46946L5.82828 2.05458Z" fill="white"/>
    <path fill-rule="evenodd" clip-rule="evenodd" d="M5.82828 6.05458C5.79933 5.98181 5.70067 5.98181 5.67172 6.05458L5.5067 6.46946L5.07808 6.50538C5.00296 6.5117 4.97248 6.60974 5.02974 6.66102L5.35619 6.95344L5.25645 7.39057C5.23896 7.46721 5.31876 7.52783 5.38315 7.48673L5.75 7.25247L6.11694 7.48673C6.18124 7.52783 6.26104 7.46721 6.24355 7.39057L6.14381 6.95344L6.47026 6.66102C6.52752 6.60974 6.49704 6.5117 6.42192 6.50547L5.99339 6.46946L5.82828 6.05458Z" fill="white"/>
    <path fill-rule="evenodd" clip-rule="evenodd" d="M5.82828 10.0546C5.79933 9.98181 5.70067 9.98181 5.67172 10.0546L5.5067 10.4695L5.07808 10.5054C5.00296 10.5117 4.97248 10.6097 5.02974 10.661L5.35619 10.9534L5.25645 11.3906C5.23896 11.4672 5.31876 11.5278 5.38315 11.4867L5.75 11.2525L6.11694 11.4867C6.18124 11.5278 6.26104 11.4672 6.24355 11.3906L6.14381 10.9534L6.47026 10.661C6.52752 10.6097 6.49704 10.5117 6.42192 10.5055L5.99339 10.4695L5.82828 10.0546Z" fill="white"/>
    <path fill-rule="evenodd" clip-rule="evenodd" d="M5.82828 14.0546C5.79933 13.9818 5.70067 13.9818 5.67172 14.0546L5.5067 14.4695L5.07808 14.5054C5.00296 14.5117 4.97248 14.6097 5.02974 14.661L5.35619 14.9534L5.25645 15.3906C5.23896 15.4672 5.31876 15.5278 5.38315 15.4867L5.75 15.2525L6.11694 15.4867C6.18124 15.5278 6.26104 15.4672 6.24355 15.3906L6.14381 14.9534L6.47026 14.661C6.52752 14.6097 6.49704 14.5117 6.42192 14.5055L5.99339 14.4695L5.82828 14.0546Z" fill="white"/>
    <path fill-rule="evenodd" clip-rule="evenodd" d="M5.82828 18.0546C5.79933 17.9818 5.70067 17.9818 5.67172 18.0546L5.5067 18.4695L5.07808 18.5054C5.00296 18.5117 4.97248 18.6097 5.02974 18.661L5.35619 18.9534L5.25645 19.3906C5.23896 19.4672 5.31876 19.5278 5.38315 19.4867L5.75 19.2525L6.11694 19.4867C6.18124 19.5278 6.26104 19.4672 6.24355 19.3906L6.14381 18.9534L6.47026 18.661C6.52752 18.6097 6.49704 18.5117 6.42192 18.5055L5.99339 18.4695L5.82828 18.0546Z" fill="white"/>
    <path fill-rule="evenodd" clip-rule="evenodd" d="M7.82828 4.05458C7.79933 3.98181 7.70067 3.98181 7.67172 4.05458L7.5067 4.46946L7.07808 4.50538C7.00296 4.5117 6.97248 4.60974 7.02974 4.66102L7.35619 4.95344L7.25645 5.39057C7.23896 5.46721 7.31876 5.52783 7.38315 5.48673L7.75 5.25247L8.11694 5.48673C8.18124 5.52783 8.26104 5.46721 8.24355 5.39057L8.14381 4.95344L8.47026 4.66102C8.52752 4.60974 8.49704 4.5117 8.42192 4.50547L7.99339 4.46946L7.82828 4.05458Z" fill="white"/>
    <path fill-rule="evenodd" clip-rule="evenodd" d="M7.82828 8.05458C7.79933 7.98181 7.70067 7.98181 7.67172 8.05458L7.5067 8.46946L7.07808 8.50538C7.00296 8.5117 6.97248 8.60974 7.02974 8.66102L7.35619 8.95344L7.25645 9.39057C7.23896 9.46721 7.31876 9.52783 7.38315 9.48673L7.75 9.25247L8.11694 9.48673C8.18124 9.52783 8.26104 9.46721 8.24355 9.39057L8.14381 8.95344L8.47026 8.66102C8.52752 8.60974 8.49704 8.5117 8.42192 8.50547L7.99339 8.46946L7.82828 8.05458Z" fill="white"/>
    <path fill-rule="evenodd" clip-rule="evenodd" d="M7.82828 12.0546C7.79933 11.9818 7.70067 11.9818 7.67172 12.0546L7.5067 12.4695L7.07808 12.5054C7.00296 12.5117 6.97248 12.6097 7.02974 12.661L7.35619 12.9534L7.25645 13.3906C7.23896 13.4672 7.31876 13.5278 7.38315 13.4867L7.75 13.2525L8.11694 13.4867C8.18124 13.5278 8.26104 13.4672 8.24355 13.3906L8.14381 12.9534L8.47026 12.661C8.52752 12.6097 8.49704 12.5117 8.42192 12.5055L7.99339 12.4695L7.82828 12.0546Z" fill="white"/>
    <path fill-rule="evenodd" clip-rule="evenodd" d="M7.82828 16.0546C7.79933 15.9818 7.70067 15.9818 7.67172 16.0546L7.5067 16.4695L7.07808 16.5054C7.00296 16.5117 6.97248 16.6097 7.02974 16.661L7.35619 16.9534L7.25645 17.3906C7.23896 17.4672 7.31876 17.5278 7.38315 17.4867L7.75 17.2525L8.11694 17.4867C8.18124 17.5278 8.26104 17.4672 8.24355 17.3906L8.14381 16.9534L8.47026 16.661C8.52752 16.6097 8.49704 16.5117 8.42192 16.5055L7.99339 16.4695L7.82828 16.0546Z" fill="white"/>
    <path fill-rule="evenodd" clip-rule="evenodd" d="M9.82827 2.05458C9.79933 1.98181 9.70067 1.98181 9.67172 2.05458L9.5067 2.46946L9.07808 2.50538C9.00296 2.5117 8.97248 2.60974 9.02974 2.66102L9.35619 2.95344L9.25645 3.39057C9.23896 3.46721 9.31877 3.52783 9.38315 3.48673L9.75 3.25247L10.1169 3.48673C10.1812 3.52783 10.261 3.46721 10.2435 3.39057L10.1438 2.95344L10.4703 2.66102C10.5275 2.60974 10.497 2.5117 10.4219 2.50547L9.99339 2.46946L9.82827 2.05458Z" fill="white"/>
    <path fill-rule="evenodd" clip-rule="evenodd" d="M9.82827 6.05458C9.79933 5.98181 9.70067 5.98181 9.67172 6.05458L9.5067 6.46946L9.07808 6.50538C9.00296 6.5117 8.97248 6.60974 9.02974 6.66102L9.35619 6.95344L9.25645 7.39057C9.23896 7.46721 9.31877 7.52783 9.38315 7.48673L9.75 7.25247L10.1169 7.48673C10.1812 7.52783 10.261 7.46721 10.2435 7.39057L10.1438 6.95344L10.4703 6.66102C10.5275 6.60974 10.497 6.5117 10.4219 6.50547L9.99339 6.46946L9.82827 6.05458Z" fill="white"/>
    <path fill-rule="evenodd" clip-rule="evenodd" d="M9.82827 10.0546C9.79933 9.98181 9.70067 9.98181 9.67172 10.0546L9.5067 10.4695L9.07808 10.5054C9.00296 10.5117 8.97248 10.6097 9.02974 10.661L9.35619 10.9534L9.25645 11.3906C9.23896 11.4672 9.31877 11.5278 9.38315 11.4867L9.75 11.2525L10.1169 11.4867C10.1812 11.5278 10.261 11.4672 10.2435 11.3906L10.1438 10.9534L10.4703 10.661C10.5275 10.6097 10.497 10.5117 10.4219 10.5055L9.99339 10.4695L9.82827 10.0546Z" fill="white"/>
    <path fill-rule="evenodd" clip-rule="evenodd" d="M9.82827 14.0546C9.79933 13.9818 9.70067 13.9818 9.67172 14.0546L9.5067 14.4695L9.07808 14.5054C9.00296 14.5117 8.97248 14.6097 9.02974 14.661L9.35619 14.9534L9.25645 15.3906C9.23896 15.4672 9.31877 15.5278 9.38315 15.4867L9.75 15.2525L10.1169 15.4867C10.1812 15.5278 10.261 15.4672 10.2435 15.3906L10.1438 14.9534L10.4703 14.661C10.5275 14.6097 10.497 14.5117 10.4219 14.5055L9.99339 14.4695L9.82827 14.0546Z" fill="white"/>
    <path fill-rule="evenodd" clip-rule="evenodd" d="M9.82827 18.0546C9.79933 17.9818 9.70067 17.9818 9.67172 18.0546L9.5067 18.4695L9.07808 18.5054C9.00296 18.5117 8.97248 18.6097 9.02974 18.661L9.35619 18.9534L9.25645 19.3906C9.23896 19.4672 9.31877 19.5278 9.38315 19.4867L9.75 19.2525L10.1169 19.4867C10.1812 19.5278 10.261 19.4672 10.2435 19.3906L10.1438 18.9534L10.4703 18.661C10.5275 18.6097 10.497 18.5117 10.4219 18.5055L9.99339 18.4695L9.82827 18.0546Z" fill="white"/>
    <path fill-rule="evenodd" clip-rule="evenodd" d="M11.8283 4.05458C11.7993 3.98181 11.7007 3.98181 11.6717 4.05458L11.5067 4.46946L11.0781 4.50538C11.003 4.5117 10.9725 4.60974 11.0297 4.66102L11.3562 4.95344L11.2565 5.39057C11.239 5.46721 11.3188 5.52783 11.3832 5.48673L11.75 5.25247L12.1169 5.48673C12.1812 5.52783 12.261 5.46721 12.2435 5.39057L12.1438 4.95344L12.4703 4.66102C12.5275 4.60974 12.497 4.5117 12.4219 4.50547L11.9934 4.46946L11.8283 4.05458Z" fill="white"/>
    <path fill-rule="evenodd" clip-rule="evenodd" d="M11.8283 8.05458C11.7993 7.98181 11.7007 7.98181 11.6717 8.05458L11.5067 8.46946L11.0781 8.50538C11.003 8.5117 10.9725 8.60974 11.0297 8.66102L11.3562 8.95344L11.2565 9.39057C11.239 9.46721 11.3188 9.52783 11.3832 9.48673L11.75 9.25247L12.1169 9.48673C12.1812 9.52783 12.261 9.46721 12.2435 9.39057L12.1438 8.95344L12.4703 8.66102C12.5275 8.60974 12.497 8.5117 12.4219 8.50547L11.9934 8.46946L11.8283 8.05458Z" fill="white"/>
    <path fill-rule="evenodd" clip-rule="evenodd" d="M11.8283 12.0546C11.7993 11.9818 11.7007 11.9818 11.6717 12.0546L11.5067 12.4695L11.0781 12.5054C11.003 12.5117 10.9725 12.6097 11.0297 12.661L11.3562 12.9534L11.2565 13.3906C11.239 13.4672 11.3188 13.5278 11.3832 13.4867L11.75 13.2525L12.1169 13.4867C12.1812 13.5278 12.261 13.4672 12.2435 13.3906L12.1438 12.9534L12.4703 12.661C12.5275 12.6097 12.497 12.5117 12.4219 12.5055L11.9934 12.4695L11.8283 12.0546Z" fill="white"/>
    <path fill-rule="evenodd" clip-rule="evenodd" d="M11.8283 16.0546C11.7993 15.9818 11.7007 15.9818 11.6717 16.0546L11.5067 16.4695L11.0781 16.5054C11.003 16.5117 10.9725 16.6097 11.0297 16.661L11.3562 16.9534L11.2565 17.3906C11.239 17.4672 11.3188 17.5278 11.3832 17.4867L11.75 17.2525L12.1169 17.4867C12.1812 17.5278 12.261 17.4672 12.2435 17.3906L12.1438 16.9534L12.4703 16.661C12.5275 16.6097 12.497 16.5117 12.4219 16.5055L11.9934 16.4695L11.8283 16.0546Z" fill="white"/>
    <path fill-rule="evenodd" clip-rule="evenodd" d="M13.8283 2.05458C13.7993 1.98181 13.7007 1.98181 13.6717 2.05458L13.5067 2.46946L13.0781 2.50538C13.003 2.5117 12.9725 2.60974 13.0297 2.66102L13.3562 2.95344L13.2565 3.39057C13.239 3.46721 13.3188 3.52783 13.3832 3.48673L13.75 3.25247L14.1169 3.48673C14.1812 3.52783 14.261 3.46721 14.2435 3.39057L14.1438 2.95344L14.4703 2.66102C14.5275 2.60974 14.497 2.5117 14.4219 2.50547L13.9934 2.46946L13.8283 2.05458Z" fill="white"/>
    <path fill-rule="evenodd" clip-rule="evenodd" d="M13.8283 6.05458C13.7993 5.98181 13.7007 5.98181 13.6717 6.05458L13.5067 6.46946L13.0781 6.50538C13.003 6.5117 12.9725 6.60974 13.0297 6.66102L13.3562 6.95344L13.2565 7.39057C13.239 7.46721 13.3188 7.52783 13.3832 7.48673L13.75 7.25247L14.1169 7.48673C14.1812 7.52783 14.261 7.46721 14.2435 7.39057L14.1438 6.95344L14.4703 6.66102C14.5275 6.60974 14.497 6.5117 14.4219 6.50547L13.9934 6.46946L13.8283 6.05458Z" fill="white"/>
    <path fill-rule="evenodd" clip-rule="evenodd" d="M13.8283 10.0546C13.7993 9.98181 13.7007 9.98181 13.6717 10.0546L13.5067 10.4695L13.0781 10.5054C13.003 10.5117 12.9725 10.6097 13.0297 10.661L13.3562 10.9534L13.2565 11.3906C13.239 11.4672 13.3188 11.5278 13.3832 11.4867L13.75 11.2525L14.1169 11.4867C14.1812 11.5278 14.261 11.4672 14.2435 11.3906L14.1438 10.9534L14.4703 10.661C14.5275 10.6097 14.497 10.5117 14.4219 10.5055L13.9934 10.4695L13.8283 10.0546Z" fill="white"/>
    <path fill-rule="evenodd" clip-rule="evenodd" d="M13.8283 14.0546C13.7993 13.9818 13.7007 13.9818 13.6717 14.0546L13.5067 14.4695L13.0781 14.5054C13.003 14.5117 12.9725 14.6097 13.0297 14.661L13.3562 14.9534L13.2565 15.3906C13.239 15.4672 13.3188 15.5278 13.3832 15.4867L13.75 15.2525L14.1169 15.4867C14.1812 15.5278 14.261 15.4672 14.2435 15.3906L14.1438 14.9534L14.4703 14.661C14.5275 14.6097 14.497 14.5117 14.4219 14.5055L13.9934 14.4695L13.8283 14.0546Z" fill="white"/>
    <path fill-rule="evenodd" clip-rule="evenodd" d="M13.8283 18.0546C13.7993 17.9818 13.7007 17.9818 13.6717 18.0546L13.5067 18.4695L13.0781 18.5054C13.003 18.5117 12.9725 18.6097 13.0297 18.661L13.3562 18.9534L13.2565 19.3906C13.239 19.4672 13.3188 19.5278 13.3832 19.4867L13.75 19.2525L14.1169 19.4867C14.1812 19.5278 14.261 19.4672 14.2435 19.3906L14.1438 18.9534L14.4703 18.661C14.5275 18.6097 14.497 18.5117 14.4219 18.5055L13.9934 18.4695L13.8283 18.0546Z" fill="white"/>
    <path fill-rule="evenodd" clip-rule="evenodd" d="M15.8283 4.05458C15.7993 3.98181 15.7007 3.98181 15.6717 4.05458L15.5067 4.46946L15.0781 4.50538C15.003 4.5117 14.9725 4.60974 15.0297 4.66102L15.3562 4.95344L15.2565 5.39057C15.239 5.46721 15.3188 5.52783 15.3832 5.48673L15.75 5.25247L16.1169 5.48673C16.1812 5.52783 16.261 5.46721 16.2435 5.39057L16.1438 4.95344L16.4703 4.66102C16.5275 4.60974 16.497 4.5117 16.4219 4.50547L15.9934 4.46946L15.8283 4.05458Z" fill="white"/>
    <path fill-rule="evenodd" clip-rule="evenodd" d="M15.8283 8.05458C15.7993 7.98181 15.7007 7.98181 15.6717 8.05458L15.5067 8.46946L15.0781 8.50538C15.003 8.5117 14.9725 8.60974 15.0297 8.66102L15.3562 8.95344L15.2565 9.39057C15.239 9.46721 15.3188 9.52783 15.3832 9.48673L15.75 9.25247L16.1169 9.48673C16.1812 9.52783 16.261 9.46721 16.2435 9.39057L16.1438 8.95344L16.4703 8.66102C16.5275 8.60974 16.497 8.5117 16.4219 8.50547L15.9934 8.46946L15.8283 8.05458Z" fill="white"/>
    <path fill-rule="evenodd" clip-rule="evenodd" d="M15.8283 12.0546C15.7993 11.9818 15.7007 11.9818 15.6717 12.0546L15.5067 12.4695L15.0781 12.5054C15.003 12.5117 14.9725 12.6097 15.0297 12.661L15.3562 12.9534L15.2565 13.3906C15.239 13.4672 15.3188 13.5278 15.3832 13.4867L15.75 13.2525L16.1169 13.4867C16.1812 13.5278 16.261 13.4672 16.2435 13.3906L16.1438 12.9534L16.4703 12.661C16.5275 12.6097 16.497 12.5117 16.4219 12.5055L15.9934 12.4695L15.8283 12.0546Z" fill="white"/>
    <path fill-rule="evenodd" clip-rule="evenodd" d="M15.8283 16.0546C15.7993 15.9818 15.7007 15.9818 15.6717 16.0546L15.5067 16.4695L15.0781 16.5054C15.003 16.5117 14.9725 16.6097 15.0297 16.661L15.3562 16.9534L15.2565 17.3906C15.239 17.4672 15.3188 17.5278 15.3832 17.4867L15.75 17.2525L16.1169 17.4867C16.1812 17.5278 16.261 17.4672 16.2435 17.3906L16.1438 16.9534L16.4703 16.661C16.5275 16.6097 16.497 16.5117 16.4219 16.5055L15.9934 16.4695L15.8283 16.0546Z" fill="white"/>
    <path fill-rule="evenodd" clip-rule="evenodd" d="M17.8283 2.05458C17.7993 1.98181 17.7007 1.98181 17.6717 2.05458L17.5067 2.46946L17.0781 2.50538C17.003 2.5117 16.9725 2.60974 17.0297 2.66102L17.3562 2.95344L17.2565 3.39057C17.239 3.46721 17.3188 3.52783 17.3832 3.48673L17.75 3.25247L18.1169 3.48673C18.1812 3.52783 18.261 3.46721 18.2435 3.39057L18.1438 2.95344L18.4703 2.66102C18.5275 2.60974 18.497 2.5117 18.4219 2.50547L17.9934 2.46946L17.8283 2.05458Z" fill="white"/>
    <path fill-rule="evenodd" clip-rule="evenodd" d="M17.8283 6.05458C17.7993 5.98181 17.7007 5.98181 17.6717 6.05458L17.5067 6.46946L17.0781 6.50538C17.003 6.5117 16.9725 6.60974 17.0297 6.66102L17.3562 6.95344L17.2565 7.39057C17.239 7.46721 17.3188 7.52783 17.3832 7.48673L17.75 7.25247L18.1169 7.48673C18.1812 7.52783 18.261 7.46721 18.2435 7.39057L18.1438 6.95344L18.4703 6.66102C18.5275 6.60974 18.497 6.5117 18.4219 6.50547L17.9934 6.46946L17.8283 6.05458Z" fill="white"/>
    <path fill-rule="evenodd" clip-rule="evenodd" d="M17.8283 10.0546C17.7993 9.98181 17.7007 9.98181 17.6717 10.0546L17.5067 10.4695L17.0781 10.5054C17.003 10.5117 16.9725 10.6097 17.0297 10.661L17.3562 10.9534L17.2565 11.3906C17.239 11.4672 17.3188 11.5278 17.3832 11.4867L17.75 11.2525L18.1169 11.4867C18.1812 11.5278 18.261 11.4672 18.2435 11.3906L18.1438 10.9534L18.4703 10.661C18.5275 10.6097 18.497 10.5117 18.4219 10.5055L17.9934 10.4695L17.8283 10.0546Z" fill="white"/>
    <path fill-rule="evenodd" clip-rule="evenodd" d="M17.8283 14.0546C17.7993 13.9818 17.7007 13.9818 17.6717 14.0546L17.5067 14.4695L17.0781 14.5054C17.003 14.5117 16.9725 14.6097 17.0297 14.661L17.3562 14.9534L17.2565 15.3906C17.239 15.4672 17.3188 15.5278 17.3832 15.4867L17.75 15.2525L18.1169 15.4867C18.1812 15.5278 18.261 15.4672 18.2435 15.3906L18.1438 14.9534L18.4703 14.661C18.5275 14.6097 18.497 14.5117 18.4219 14.5055L17.9934 14.4695L17.8283 14.0546Z" fill="white"/>
    <path fill-rule="evenodd" clip-rule="evenodd" d="M17.8283 18.0546C17.7993 17.9818 17.7007 17.9818 17.6717 18.0546L17.5067 18.4695L17.0781 18.5054C17.003 18.5117 16.9725 18.6097 17.0297 18.661L17.3562 18.9534L17.2565 19.3906C17.239 19.4672 17.3188 19.5278 17.3832 19.4867L17.75 19.2525L18.1169 19.4867C18.1812 19.5278 18.261 19.4672 18.2435 19.3906L18.1438 18.9534L18.4703 18.661C18.5275 18.6097 18.497 18.5117 18.4219 18.5055L17.9934 18.4695L17.8283 18.0546Z" fill="white"/>
    <path fill-rule="evenodd" clip-rule="evenodd" d="M19.8283 4.05458C19.7993 3.98181 19.7007 3.98181 19.6717 4.05458L19.5067 4.46946L19.0781 4.50538C19.003 4.5117 18.9725 4.60974 19.0297 4.66102L19.3562 4.95344L19.2565 5.39057C19.239 5.46721 19.3188 5.52783 19.3832 5.48673L19.75 5.25247L20.1169 5.48673C20.1812 5.52783 20.261 5.46721 20.2435 5.39057L20.1438 4.95344L20.4703 4.66102C20.5275 4.60974 20.497 4.5117 20.4219 4.50547L19.9934 4.46946L19.8283 4.05458Z" fill="white"/>
    <path fill-rule="evenodd" clip-rule="evenodd" d="M19.8283 8.05458C19.7993 7.98181 19.7007 7.98181 19.6717 8.05458L19.5067 8.46946L19.0781 8.50538C19.003 8.5117 18.9725 8.60974 19.0297 8.66102L19.3562 8.95344L19.2565 9.39057C19.239 9.46721 19.3188 9.52783 19.3832 9.48673L19.75 9.25247L20.1169 9.48673C20.1812 9.52783 20.261 9.46721 20.2435 9.39057L20.1438 8.95344L20.4703 8.66102C20.5275 8.60974 20.497 8.5117 20.4219 8.50547L19.9934 8.46946L19.8283 8.05458Z" fill="white"/>
    <path fill-rule="evenodd" clip-rule="evenodd" d="M19.8283 12.0546C19.7993 11.9818 19.7007 11.9818 19.6717 12.0546L19.5067 12.4695L19.0781 12.5054C19.003 12.5117 18.9725 12.6097 19.0297 12.661L19.3562 12.9534L19.2565 13.3906C19.239 13.4672 19.3188 13.5278 19.3832 13.4867L19.75 13.2525L20.1169 13.4867C20.1812 13.5278 20.261 13.4672 20.2435 13.3906L20.1438 12.9534L20.4703 12.661C20.5275 12.6097 20.497 12.5117 20.4219 12.5055L19.9934 12.4695L19.8283 12.0546Z" fill="white"/>
    <path fill-rule="evenodd" clip-rule="evenodd" d="M19.8283 16.0546C19.7993 15.9818 19.7007 15.9818 19.6717 16.0546L19.5067 16.4695L19.0781 16.5054C19.003 16.5117 18.9725 16.6097 19.0297 16.661L19.3562 16.9534L19.2565 17.3906C19.239 17.4672 19.3188 17.5278 19.3832 17.4867L19.75 17.2525L20.1169 17.4867C20.1812 17.5278 20.261 17.4672 20.2435 17.3906L20.1438 16.9534L20.4703 16.661C20.5275 16.6097 20.497 16.5117 20.4219 16.5055L19.9934 16.4695L19.8283 16.0546Z" fill="white"/>
    <path fill-rule="evenodd" clip-rule="evenodd" d="M21.8283 2.05458C21.7993 1.98181 21.7007 1.98181 21.6717 2.05458L21.5067 2.46946L21.0781 2.50538C21.003 2.5117 20.9725 2.60974 21.0297 2.66102L21.3562 2.95344L21.2565 3.39057C21.239 3.46721 21.3188 3.52783 21.3832 3.48673L21.75 3.25247L22.1169 3.48673C22.1812 3.52783 22.261 3.46721 22.2435 3.39057L22.1438 2.95344L22.4703 2.66102C22.5275 2.60974 22.497 2.5117 22.4219 2.50547L21.9934 2.46946L21.8283 2.05458Z" fill="white"/>
    <path fill-rule="evenodd" clip-rule="evenodd" d="M21.8283 6.05458C21.7993 5.98181 21.7007 5.98181 21.6717 6.05458L21.5067 6.46946L21.0781 6.50538C21.003 6.5117 20.9725 6.60974 21.0297 6.66102L21.3562 6.95344L21.2565 7.39057C21.239 7.46721 21.3188 7.52783 21.3832 7.48673L21.75 7.25247L22.1169 7.48673C22.1812 7.52783 22.261 7.46721 22.2435 7.39057L22.1438 6.95344L22.4703 6.66102C22.5275 6.60974 22.497 6.5117 22.4219 6.50547L21.9934 6.46946L21.8283 6.05458Z" fill="white"/>
    <path fill-rule="evenodd" clip-rule="evenodd" d="M21.8283 10.0546C21.7993 9.98181 21.7007 9.98181 21.6717 10.0546L21.5067 10.4695L21.0781 10.5054C21.003 10.5117 20.9725 10.6097 21.0297 10.661L21.3562 10.9534L21.2565 11.3906C21.239 11.4672 21.3188 11.5278 21.3832 11.4867L21.75 11.2525L22.1169 11.4867C22.1812 11.5278 22.261 11.4672 22.2435 11.3906L22.1438 10.9534L22.4703 10.661C22.5275 10.6097 22.497 10.5117 22.4219 10.5055L21.9934 10.4695L21.8283 10.0546Z" fill="white"/>
    <path fill-rule="evenodd" clip-rule="evenodd" d="M21.8283 14.0546C21.7993 13.9818 21.7007 13.9818 21.6717 14.0546L21.5067 14.4695L21.0781 14.5054C21.003 14.5117 20.9725 14.6097 21.0297 14.661L21.3562 14.9534L21.2565 15.3906C21.239 15.4672 21.3188 15.5278 21.3832 15.4867L21.75 15.2525L22.1169 15.4867C22.1812 15.5278 22.261 15.4672 22.2435 15.3906L22.1438 14.9534L22.4703 14.661C22.5275 14.6097 22.497 14.5117 22.4219 14.5055L21.9934 14.4695L21.8283 14.0546Z" fill="white"/>
    <path fill-rule="evenodd" clip-rule="evenodd" d="M21.8283 18.0546C21.7993 17.9818 21.7007 17.9818 21.6717 18.0546L21.5067 18.4695L21.0781 18.5054C21.003 18.5117 20.9725 18.6097 21.0297 18.661L21.3562 18.9534L21.2565 19.3906C21.239 19.4672 21.3188 19.5278 21.3832 19.4867L21.75 19.2525L22.1169 19.4867C22.1812 19.5278 22.261 19.4672 22.2435 19.3906L22.1438 18.9534L22.4703 18.661C22.5275 18.6097 22.497 18.5117 22.4219 18.5055L21.9934 18.4695L21.8283 18.0546Z" fill="white"/>
    </g>
    </g>
    </g>
    <defs>
    <clipPath id="clip0_6640_170320">
    <rect width="64" height="44" rx="8" fill="white"/>
    </clipPath>
    </defs>
    </svg>
    